<?xml version="1.0" encoding="UTF-8" standalone="no"?>
<!-- Created with Inkscape (http://www.inkscape.org/) -->

<svg
   width="1837.2841"
   height="489.13135"
   viewBox="0 0 486.11468 129.41599"
   version="1.1"
   id="svg1"
   xml:space="preserve"
   inkscape:version="1.4.2 (ebf0e940, 2025-05-08)"
   sodipodi:docname="logo-text-horizontal.svg"
   xmlns:inkscape="http://www.inkscape.org/namespaces/inkscape"
   xmlns:sodipodi="http://sodipodi.sourceforge.net/DTD/sodipodi-0.dtd"
   xmlns:xlink="http://www.w3.org/1999/xlink"
   xmlns="http://www.w3.org/2000/svg"
   xmlns:svg="http://www.w3.org/2000/svg"><sodipodi:namedview
     id="namedview1"
     pagecolor="#ffffff"
     bordercolor="#000000"
     borderopacity="0.25"
     inkscape:showpageshadow="2"
     inkscape:pageopacity="0.0"
     inkscape:pagecheckerboard="0"
     inkscape:deskcolor="#d1d1d1"
     inkscape:document-units="px"
     inkscape:zoom="0.21190527"
     inkscape:cx="804.60481"
     inkscape:cy="1451.1201"
     inkscape:window-width="1728"
     inkscape:window-height="1052"
     inkscape:window-x="0"
     inkscape:window-y="65"
     inkscape:window-maximized="0"
     inkscape:current-layer="layer1" /><defs
     id="defs1"><linearGradient
       id="linearGradient19"
       inkscape:collect="always"><stop
         style="stop-color:#d439b4;stop-opacity:1;"
         offset="0"
         id="stop19" /><stop
         style="stop-color:#06adc6;stop-opacity:1;"
         offset="1"
         id="stop20" /></linearGradient><linearGradient
       id="blueGradient"
       x1="0"
       x2="1"
       y1="0"
       y2="1"><stop
         offset="0"
         stop-color="#00BCD4"
         id="stop1" /><stop
         offset="1"
         stop-color="#3F51B5"
         id="stop2" /></linearGradient><linearGradient
       id="linearGradient12"
       x1="30.645853"
       x2="87.556755"
       y1="87.870239"
       y2="144.78114"
       gradientTransform="scale(0.93060553,1.0745692)"
       gradientUnits="userSpaceOnUse"><stop
         offset="0"
         stop-color="#00BCD4"
         id="stop7" /><stop
         offset="1"
         stop-color="#3F51B5"
         id="stop8" /></linearGradient><linearGradient
       id="linearGradient14"
       x1="143.47562"
       x2="200.38652"
       y1="31.455257"
       y2="88.366158"
       gradientTransform="scale(0.93060553,1.0745692)"
       gradientUnits="userSpaceOnUse"><stop
         offset="0"
         stop-color="#00BCD4"
         id="stop13" /><stop
         offset="1"
         stop-color="#3F51B5"
         id="stop14" /></linearGradient><linearGradient
       inkscape:collect="always"
       xlink:href="#blueGradient"
       id="linearGradient15"
       x1="68.255775"
       y1="31.455257"
       x2="125.16668"
       y2="88.366158"
       gradientTransform="scale(0.93060553,1.0745692)"
       gradientUnits="userSpaceOnUse" /><linearGradient
       inkscape:collect="always"
       xlink:href="#blueGradient"
       id="linearGradient17"
       x1="143.47562"
       y1="31.455257"
       x2="200.38652"
       y2="88.366158"
       gradientTransform="scale(0.93060553,1.0745692)"
       gradientUnits="userSpaceOnUse" /><linearGradient
       id="linearGradient12-5"
       x1="31.183138"
       x2="87.01947"
       y1="88.407524"
       y2="144.24387"
       gradientTransform="scale(0.93060554,1.0745691)"
       gradientUnits="userSpaceOnUse"><stop
         offset="0"
         stop-color="#00BCD4"
         id="stop7-8" /><stop
         offset="1"
         stop-color="#3F51B5"
         id="stop8-1" /></linearGradient><linearGradient
       id="linearGradient14-7"
       x1="144.01289"
       x2="199.84923"
       y1="31.992542"
       y2="87.828873"
       gradientTransform="scale(0.93060554,1.0745691)"
       gradientUnits="userSpaceOnUse"><stop
         offset="0"
         stop-color="#00BCD4"
         id="stop13-1" /><stop
         offset="1"
         stop-color="#3F51B5"
         id="stop14-3" /></linearGradient><linearGradient
       inkscape:collect="always"
       xlink:href="#blueGradient"
       id="linearGradient15-8"
       x1="68.79306"
       y1="31.992542"
       x2="124.62939"
       y2="87.828873"
       gradientTransform="scale(0.93060554,1.0745691)"
       gradientUnits="userSpaceOnUse" /><linearGradient
       inkscape:collect="always"
       xlink:href="#blueGradient"
       id="linearGradient17-4"
       x1="144.01289"
       y1="31.992542"
       x2="199.84923"
       y2="87.828873"
       gradientTransform="scale(0.93060554,1.0745691)"
       gradientUnits="userSpaceOnUse" /><linearGradient
       inkscape:collect="always"
       xlink:href="#linearGradient19"
       id="linearGradient33"
       gradientUnits="userSpaceOnUse"
       x1="46.483501"
       y1="174.89859"
       x2="169.78781"
       y2="115.37238" /><linearGradient
       inkscape:collect="always"
       xlink:href="#linearGradient19"
       id="linearGradient34"
       gradientUnits="userSpaceOnUse"
       x1="46.483501"
       y1="174.89859"
       x2="169.78781"
       y2="115.37238" /><linearGradient
       inkscape:collect="always"
       xlink:href="#linearGradient19"
       id="linearGradient35"
       gradientUnits="userSpaceOnUse"
       x1="46.483501"
       y1="174.89859"
       x2="169.78781"
       y2="115.37238" /><linearGradient
       inkscape:collect="always"
       xlink:href="#linearGradient19"
       id="linearGradient36"
       gradientUnits="userSpaceOnUse"
       x1="46.483501"
       y1="174.89859"
       x2="169.78781"
       y2="115.37238" /><linearGradient
       inkscape:collect="always"
       xlink:href="#linearGradient19"
       id="linearGradient37"
       gradientUnits="userSpaceOnUse"
       x1="46.483501"
       y1="174.89859"
       x2="169.78781"
       y2="115.37238" /><linearGradient
       inkscape:collect="always"
       xlink:href="#linearGradient19"
       id="linearGradient38"
       gradientUnits="userSpaceOnUse"
       x1="46.483501"
       y1="174.89859"
       x2="169.78781"
       y2="115.37238" /><linearGradient
       inkscape:collect="always"
       xlink:href="#linearGradient19"
       id="linearGradient39"
       gradientUnits="userSpaceOnUse"
       x1="46.483501"
       y1="174.89859"
       x2="169.78781"
       y2="115.37238" /></defs><g
     inkscape:label="Layer 1"
     inkscape:groupmode="layer"
     id="layer1"
     transform="translate(21.111549,108.36454)"><path
       d="m 180.2466,-5.3856087 -5.68892,-14.3774643 h -28.34119 l -5.37862,14.3774643 h -19.23891 l 30.72019,-73.2319783 h 17.17021 l 30.40989,73.2319783 z m -19.65265,-53.6827633 -9.30915,25.134704 h 18.41143 z m 62.88849,-14.27403 q 0,1.965265 -0.82748,3.72366 -0.72405,1.65496 -2.0687,2.89618 -1.24122,1.24122 -3.10305,1.965265 -1.7584,0.724045 -3.72366,0.724045 -4.1374,0 -6.93015,-2.68931 -2.79274,-2.792745 -2.79274,-6.61984 0,-1.86183 0.72404,-3.51679 0.72405,-1.758395 2.0687,-2.999615 1.34466,-1.24122 3.10305,-1.965265 1.7584,-0.82748 3.8271,-0.82748 1.96526,0 3.72366,0.724045 1.86183,0.724045 3.10305,1.965265 1.34465,1.24122 2.0687,2.999615 0.82748,1.65496 0.82748,3.620225 z M 205.27788,-5.3856087 V -56.896237 h 16.96334 v 51.5106283 z m 87.81626,-25.9621843 q 0,5.37862 -1.65496,10.3435 -1.65496,4.96488 -4.86145,8.791974 -3.10305,3.7236604 -7.65419,5.9992303 -4.55114,2.27557 -10.3435,2.27557 -5.17174,0 -9.82632,-2.0687 -4.55114,-2.1721349 -7.03358,-6.1026653 h -0.20687 v 6.7232753 H 235.89459 V -83.582467 h 16.96334 v 32.168284 h 0.20687 q 2.17213,-2.585875 6.10266,-4.758009 3.93053,-2.172135 9.61945,-2.172135 5.58549,0 10.0332,2.172135 4.55114,2.172134 7.65419,5.895794 3.20648,3.72366 4.86144,8.68854 1.7584,4.861445 1.7584,10.240065 z m -16.34273,0 q 0,-2.48244 -0.82748,-4.861445 -0.72405,-2.379005 -2.27557,-4.1374 -1.55153,-1.86183 -3.8271,-2.999615 -2.27557,-1.137785 -5.27518,-1.137785 -2.89618,0 -5.17175,1.137785 -2.27557,1.137785 -3.93053,2.999615 -1.55152,1.86183 -2.48244,4.240835 -0.82748,2.379005 -0.82748,4.861445 0,2.48244 0.82748,4.861445 0.93092,2.379005 2.48244,4.240835 1.65496,1.86183 3.93053,2.999615 2.27557,1.137785 5.17175,1.137785 2.99961,0 5.27518,-1.137785 2.27557,-1.137785 3.8271,-2.999615 1.55152,-1.86183 2.27557,-4.240835 0.82748,-2.48244 0.82748,-4.96488 z m 60.50952,-11.688155 q -1.13778,-0.310305 -2.27557,-0.41374 -1.03435,-0.103435 -2.0687,-0.103435 -3.41335,0 -5.79236,1.24122 -2.27557,1.24122 -3.72366,2.999615 -1.34465,1.758395 -1.96526,3.827095 -0.62061,2.0687 -0.62061,3.620225 V -5.3856087 H 303.85143 V -56.896237 h 16.34273 v 7.447319 h 0.20687 q 1.96526,-3.93053 5.58549,-6.412969 3.62022,-2.48244 8.37823,-2.48244 1.03435,0 1.96527,0.103435 1.03435,0.103435 1.65496,0.310305 z m 25.96218,-30.306454 q 0,1.965265 -0.82748,3.72366 -0.72405,1.65496 -2.0687,2.89618 -1.24122,1.24122 -3.10305,1.965265 -1.7584,0.724045 -3.72366,0.724045 -4.1374,0 -6.93015,-2.68931 -2.79274,-2.792745 -2.79274,-6.61984 0,-1.86183 0.72404,-3.51679 0.72405,-1.758395 2.0687,-2.999615 1.34466,-1.24122 3.10305,-1.965265 1.7584,-0.82748 3.8271,-0.82748 1.96526,0 3.72366,0.724045 1.86183,0.724045 3.10305,1.965265 1.34465,1.24122 2.0687,2.999615 0.82748,1.65496 0.82748,3.620225 z M 345.01855,-5.3856087 V -56.896237 h 16.96334 v 51.5106283 z m 48.82127,-38.7881243 v 19.65265 q 0,3.620225 1.34466,5.482055 1.44809,1.758395 5.06831,1.758395 1.24122,0 2.58588,-0.20687 1.44809,-0.20687 2.379,-0.62061 l 0.20687,12.4121993 q -1.75839,0.62061 -4.4477,1.03435 -2.68931,0.517175 -5.37862,0.517175 -5.17175,0 -8.68854,-1.24122 -3.51679,-1.3446549 -5.68893,-3.7236599 -2.0687,-2.4824404 -2.99961,-5.7923594 -0.93092,-3.413355 -0.93092,-7.550755 v -21.72135 h -8.2748 v -12.722504 h 8.17137 v -13.549985 h 16.65303 v 13.549985 h 12.1019 v 12.722504 z m 55.54456,7.137015 q 0,-4.033965 -2.58587,-6.930145 -2.48244,-2.89618 -7.55076,-2.89618 -2.48244,0 -4.55114,0.82748 -2.0687,0.724045 -3.62022,2.0687 -1.55153,1.344655 -2.48244,3.206485 -0.93092,1.758395 -1.03435,3.72366 z m 15.61868,6.516405 q 0,1.03435 0,2.0687 0,1.03435 -0.10343,1.965265 H 427.5596 q 0.20687,2.172135 1.24122,3.93053 1.13778,1.758395 2.79274,3.10305 1.7584,1.24122 3.8271,1.965265 2.17213,0.724045 4.4477,0.724045 4.03397,0 6.82671,-1.44809 2.79274,-1.551525 4.55114,-3.93053 l 11.79159,7.44732 q -3.62023,5.2751844 -9.61946,8.1713644 -5.89579,2.7927449 -13.75685,2.7927449 -5.79236,0 -10.96411,-1.758395 -5.17175,-1.8618299 -9.10228,-5.2751853 -3.82709,-3.516789 -6.10266,-8.585104 -2.17214,-5.068315 -2.17214,-11.58472 0,-6.309535 2.17214,-11.37785 2.17213,-5.17175 5.89579,-8.68854 3.72366,-3.620225 8.79198,-5.585489 5.06831,-1.965265 10.96411,-1.965265 5.68892,0 10.44693,1.965265 4.75801,1.861829 8.17136,5.482054 3.41336,3.620225 5.27519,8.791975 1.96526,5.17175 1.96526,11.79159 z"
       id="text1"
       style="font-weight:bold;font-size:103.435px;font-family:'Avenir Next';-inkscape-font-specification:'Avenir Next, Bold';text-align:center;text-anchor:middle;fill:#112446;fill-opacity:0.911007;stroke-width:28.2817;paint-order:markers stroke fill"
       aria-label="Aibrite" /><g
       id="g39"
       transform="translate(-196.97341,-191.03463)"><polygon
         fill="url(#blueGradient)"
         points="150.9808,110 150.9808,140 125,155 99.0192,140 99.0192,110 125,95 "
         id="polygon2-0"
         style="fill:url(#linearGradient33);fill-opacity:1"
         transform="matrix(0,0.729309,-0.729309,0,330.47093,56.214459)" /><polygon
         fill="url(#blueGradient)"
         points="169.0192,110 195,95 220.9808,110 220.9808,140 195,155 169.0192,140 "
         id="polygon3-4"
         style="fill:url(#linearGradient34);fill-opacity:1"
         transform="matrix(0,0.729309,-0.729309,0,330.47093,50.922789)" /><polygon
         fill="url(#blueGradient)"
         points="134.0192,170.6218 160,155.6218 185.9808,170.6218 185.9808,200.6218 160,215.6218 134.0192,200.6218 "
         id="polygon4-6"
         style="fill:url(#linearGradient35);fill-opacity:1"
         transform="matrix(0,0.729309,-0.729309,0,333.11678,53.568624)" /><polygon
         fill="url(#blueGradient)"
         points="64.0192,170.6218 90,155.6218 115.9808,170.6218 115.9808,200.6218 90,215.6218 64.0192,200.6218 "
         id="polygon5-0"
         style="fill:url(#linearGradient36);fill-opacity:1"
         transform="matrix(0,0.729309,-0.729309,0,333.11678,58.860294)" /><polygon
         fill="url(#blueGradient)"
         points="29.0192,110 55,95 80.9808,110 80.9808,140 55,155 29.0192,140 "
         id="polygon6-3"
         style="fill:url(#linearGradient37);fill-opacity:1"
         transform="matrix(0,0.729309,-0.729309,0,330.47093,61.506129)" /><polygon
         fill="url(#blueGradient)"
         points="64.0192,49.3782 90,34.3782 115.9808,49.3782 115.9808,79.3782 90,94.3782 64.0192,79.3782 "
         id="polygon7-2"
         style="fill:url(#linearGradient38);fill-opacity:1"
         transform="matrix(0,0.729309,-0.729309,0,327.82508,58.860294)" /><polygon
         fill="url(#blueGradient)"
         points="134.0192,49.3782 160,34.3782 185.9808,49.3782 185.9808,79.3782 160,94.3782 134.0192,79.3782 "
         id="polygon8-6"
         style="fill:url(#linearGradient39);fill-opacity:1"
         transform="matrix(0,0.729309,-0.729309,0,327.82508,53.568624)" /></g></g></svg>
